Coordinates
version=1
nRows=11
nColumns=42
inDegrees=yes

Units are S.I. units (second, meters, Newtons, ...)
If the header above contains a line with 'inDegrees', this indicates whether rotational values are in degrees (yes) or radians (no).

endheader
time	pelvis_tilt	pelvis_list	pelvis_rotation	pelvis_tx	pelvis_ty	pelvis_tz	hip_flexion_r	hip_adduction_r	hip_rotation_r	knee_angle_r	knee_angle_r_beta	ankle_angle_r	subtalar_angle_r	mtp_angle_r	hip_flexion_l	hip_adduction_l	hip_rotation_l	knee_angle_l	knee_angle_l_beta	ankle_angle_l	subtalar_angle_l	mtp_angle_l	lumbar_extension	lumbar_bending	lumbar_rotation	sh_tx_r	sh_ty_r	sh_tz_r	sh_plane_elev_r	sh_elev_r	sh_axial_rot_r	elbow_flex_r	pro_sup_r	sh_tx_l	sh_ty_l	sh_tz_l	sh_plane_elev_l	sh_elev_l	sh_axial_rot_l	elbow_flex_l	pro_sup_l
      1.74576270	     -5.16298054	     -0.33668222	      2.41641050	      0.31462298	      0.93496381	     -0.05864723	      1.83409721	     -4.86271120	     -5.12212152	      0.56997419	      0.00994793	      2.11868702	     -4.92538355	     -7.49999820	      2.53724229	     -2.44621752	     -5.62041327	      1.31820882	      0.02300708	      9.68037051	      4.04931471	     -7.49999820	      1.82482409	      0.15638592	     -6.16847686	      0.00357398	     -0.01733525	     -0.00542158	     11.21735536	      6.49005569	      0.31707714	     25.21413872	     67.82581652	     -0.00400713	     -0.00872141	     -0.00351352	     -5.03790603	     26.02831567	    -10.52468230	     38.33323741	     55.20865082
      1.76271190	     -5.12327170	     -0.34507518	      2.44328234	      0.31460990	      0.93186027	     -0.05932938	      1.79341834	     -4.85741134	     -5.34555567	      0.57088344	      0.00996380	      2.19544949	     -4.64178478	     -7.49999849	      2.46762759	     -2.43829027	     -5.51713279	      1.26190136	      0.02202433	      9.58933373	      3.86847345	     -7.49999849	      1.79832395	      0.19694820	     -6.02498089	      0.00332933	     -0.01729703	     -0.00550990	     11.68360260	      6.64968668	      1.06965289	     25.05227902	     66.91765252	     -0.00291118	     -0.00834793	     -0.00347826	     -5.12297356	     26.20801657	    -10.40455218	     38.50446559	     55.44265011
      1.77966100	     -5.26611333	     -0.35205556	      2.48565231	      0.31477921	      0.93170945	     -0.05881492	      1.94713516	     -4.83502514	     -5.38706102	      0.58153063	      0.01014962	      2.18185642	     -4.69153436	     -7.49999854	      2.63638398	     -2.44257794	     -5.33748259	      1.28942038	      0.02250463	      9.71602848	      3.87778423	     -7.49999854	      1.87355438	      0.20092060	     -6.08015123	      0.00261666	     -0.01734639	     -0.00533824	     11.73555967	      6.59743913	      1.01550104	     25.35148023	     66.80864908	     -0.00368304	     -0.00824354	     -0.00358649	     -5.03916728	     26.45909002	    -10.40383051	     38.58387611	     55.44748602
      1.79661020	     -5.12976600	     -0.36234098	      2.52567015	      0.31453803	      0.92911301	     -0.05913928	      1.79978552	     -4.81159303	     -5.39416696	      0.59033219	      0.01030324	      1.99411280	     -5.18039774	     -7.49999873	      2.47922893	     -2.44856930	     -5.34355585	      1.25054022	      0.02182604	      9.65102703	      3.83229151	     -7.49999873	      1.77867872	      0.29584087	     -6.65779186	      0.00520786	     -0.01723423	     -0.00550516	     11.49862078	      6.49737675	      0.78990431	     25.26922529	     66.25875448	     -0.00473361	     -0.00756910	     -0.00351382	     -5.20052928	     26.73176718	    -10.56633183	     38.17467588	     54.75915911
      1.81355930	     -5.24881756	     -0.38071277	      2.56156992	      0.31474922	      0.92921303	     -0.05861413	      1.93454464	     -4.81198148	     -5.33902545	      0.62037200	      0.01082753	      2.00075874	     -5.23883645	     -7.49999893	      2.61884874	     -2.47308723	     -5.31299419	      1.27997100	      0.02233971	      9.68643201	      3.83471822	     -7.49999893	      1.98429392	      0.33170841	     -6.60459067	      0.00479338	     -0.01720907	     -0.00546054	     11.70843127	      6.47374380	      0.58148277	     25.00688497	     65.70358595	     -0.00435236	     -0.00748828	     -0.00352843	     -5.11118122	     26.97066593	    -10.73317993	     38.16818924	     54.08840647
      1.83050850	     -5.21907781	     -0.39908454	      2.59016243	      0.31468642	      0.92951333	     -0.05915849	      1.90102685	     -4.82881086	     -5.20937332	      0.63563676	      0.01109395	      1.96785918	     -5.41243368	     -7.49999907	      2.57575846	     -2.49658905	     -5.22695241	      1.25081253	      0.02183080	      9.72050975	      3.79228107	     -7.49999907	      1.89845402	      0.38941690	     -6.95302062	      0.00549517	     -0.01714588	     -0.00550639	     11.84814137	      6.50008103	      0.66119456	     25.25257581	     65.51915322	     -0.00490234	     -0.00714802	     -0.00351029	     -5.37444329	     27.21886151	    -11.03242327	     38.62516098	     53.36026808
      1.84745760	     -5.39155715	     -0.42777811	      2.65501060	      0.31502209	      0.92942671	     -0.05870383	      2.07401556	     -4.81030293	     -5.20061162	      0.65257265	      0.01138954	      2.07944025	     -5.27139661	     -7.49999925	      2.77410450	     -2.52868540	     -5.09551214	      1.27330297	      0.02222333	      9.74671642	      3.74492658	     -7.49999925	      2.22322990	      0.41059436	     -7.26121703	      0.00627245	     -0.01710676	     -0.00548909	     11.94238115	      6.41027319	      0.75056811	     25.02491689	     64.89388333	     -0.00482810	     -0.00719497	     -0.00349979	     -5.34618190	     27.65378282	    -11.35711314	     38.51238825	     52.84725674
      1.86440680	     -5.46565267	     -0.44731245	      2.65929669	      0.31495447	      0.92957319	     -0.05926543	      2.17014164	     -4.81198084	     -5.07804759	      0.66613391	      0.01162623	      2.05543475	     -5.41039444	     -7.49999941	      2.84707435	     -2.54849823	     -5.09719798	      1.26653873	      0.02210527	      9.78733384	      3.79379714	     -7.49999941	      2.33326527	      0.46391432	     -7.40845792	      0.00652482	     -0.01710089	     -0.00550518	     12.11807543	      6.43401959	      0.82208867	     24.97832809	     64.34331745	     -0.00471767	     -0.00680440	     -0.00350138	     -5.46873995	     27.93446859	    -11.89251081	     38.87770068	     52.35829605
      1.88135590	     -5.36998220	     -0.46619812	      2.65427517	      0.31491511	      0.93297839	     -0.05853281	      2.07594090	     -4.78763696	     -4.92256431	      0.65463840	      0.01142560	      2.05174799	     -5.36525021	     -7.49999961	      2.72289089	     -2.58350453	     -5.08892102	      1.23065103	      0.02147891	      9.74672277	      3.80814361	     -7.49999961	      2.10172102	      0.52477815	     -6.74194633	      0.00427331	     -0.01704480	     -0.00550451	     10.94400218	      6.40128772	      0.52468335	     25.08250763	     67.32635200	     -0.00456302	     -0.00634704	     -0.00361179	     -2.97941245	     28.45642995	    -13.37901180	     38.47320740	     49.41206547
      1.89830510	     -5.43338843	     -0.47039424	      2.65847391	      0.31472151	      0.93278482	     -0.05900741	      2.16891860	     -4.80873096	     -4.94596046	      0.64132061	      0.01119316	      2.07834458	     -5.25540630	     -7.49999965	      2.78264453	     -2.57137313	     -5.03250922	      1.19064224	      0.02078063	      9.60826615	      3.71272531	     -7.49999965	      2.18351520	      0.59787167	     -7.00252005	      0.00516856	     -0.01707209	     -0.00551583	     11.05958508	      6.39400243	      0.56963765	     25.00986168	     66.74932646	     -0.00469304	     -0.00556567	     -0.00363638	     -3.75698818	     28.49028456	    -13.61115834	     38.96604138	     49.39235210
      1.91525420	     -5.46188240	     -0.47613089	      2.65004989	      0.31482323	      0.93261892	     -0.05848122	      2.22739152	     -4.81127870	     -4.95505238	      0.61911224	      0.01080555	      2.03601650	     -5.25076921	     -7.49999967	      2.81174065	     -2.56346548	     -5.01711131	      1.18787267	      0.02073229	      9.51835171	      3.64002698	     -7.49999967	      2.25361957	      0.66309831	     -7.24345506	      0.00592350	     -0.01701532	     -0.00558295	     11.11751677	      6.38976624	      0.72683038	     25.05039706	     66.31153166	     -0.00462618	     -0.00495453	     -0.00361944	     -4.42996859	     28.65138351	    -13.75181805	     39.45066584	     49.26262268
